<?xml version="1.0" encoding="UTF-8" standalone="no"?>
<svg
   height="24"
   viewBox="0 -960 960 960"
   width="24"
   version="1.1"
   id="svg1"
   sodipodi:docname="speed_FILL0_wght300_GRAD0_opsz24.svg"
   inkscape:version="1.3.2 (091e20ef0f, 2023-11-25, custom)"
   xmlns:inkscape="http://www.inkscape.org/namespaces/inkscape"
   xmlns:sodipodi="http://sodipodi.sourceforge.net/DTD/sodipodi-0.dtd"
   xmlns="http://www.w3.org/2000/svg"
   xmlns:svg="http://www.w3.org/2000/svg">
  <defs
     id="defs1" />
  <sodipodi:namedview
     id="namedview1"
     pagecolor="#ffffff"
     bordercolor="#000000"
     borderopacity="0.25"
     inkscape:showpageshadow="2"
     inkscape:pageopacity="0.0"
     inkscape:pagecheckerboard="0"
     inkscape:deskcolor="#d1d1d1"
     inkscape:zoom="48.166667"
     inkscape:cx="11.989619"
     inkscape:cy="12"
     inkscape:window-width="2560"
     inkscape:window-height="1362"
     inkscape:window-x="2560"
     inkscape:window-y="0"
     inkscape:window-maximized="1"
     inkscape:current-layer="svg1" />
  <path
     d="M424.154-346.154q21.308 21.307 54.884 20.23 33.577-1.077 49.269-24.23l217.077-314.46-315.23 216.307q-23.538 15.692-25.423 48.269-1.884 32.576 19.423 53.884ZM480-779.999q57.077 0 106.961 14.962 49.884 14.961 96.346 45.269l-56.383 36.461q-34.154-18.154-70.808-27.424Q519.462-720 480-720q-133 0-226.5 93.5T160-400q0 42 11.5 83t32.5 77h552q23-38 33.5-79t10.5-85q0-36-8.885-72.885-8.884-36.885-27.423-70.039l36.461-56.383q29.615 48.539 44.423 97.115 14.807 48.577 15.423 100.961.615 54.308-12.231 102.654t-38.692 94.576q-7.923 13-22.307 20.5-14.385 7.5-30.769 7.5H204q-16 0-30.192-7.693-14.192-7.692-22.884-21.845-22.923-40-36.923-87.23-14-47.231-14-103.231 0-78.384 29.739-147.371 29.739-68.987 81.192-120.846 51.453-51.859 120.992-81.82Q401.462-779.999 480-779.999Zm4.307 295.692Z"
     id="path1"
     style="fill:#ffffff" />
</svg>
