<?xml version="1.0" encoding="UTF-8" standalone="no"?>
<svg
   height="24"
   viewBox="0 -960 960 960"
   width="24"
   version="1.1"
   id="svg1"
   sodipodi:docname="memory_FILL0_wght300_GRAD0_opsz24.svg"
   inkscape:version="1.3.2 (091e20ef0f, 2023-11-25, custom)"
   xmlns:inkscape="http://www.inkscape.org/namespaces/inkscape"
   xmlns:sodipodi="http://sodipodi.sourceforge.net/DTD/sodipodi-0.dtd"
   xmlns="http://www.w3.org/2000/svg"
   xmlns:svg="http://www.w3.org/2000/svg">
  <defs
     id="defs1" />
  <sodipodi:namedview
     id="namedview1"
     pagecolor="#ffffff"
     bordercolor="#000000"
     borderopacity="0.25"
     inkscape:showpageshadow="2"
     inkscape:pageopacity="0.0"
     inkscape:pagecheckerboard="0"
     inkscape:deskcolor="#d1d1d1"
     inkscape:zoom="49.875"
     inkscape:cx="11.989975"
     inkscape:cy="12"
     inkscape:window-width="2560"
     inkscape:window-height="1403"
     inkscape:window-x="2560"
     inkscape:window-y="0"
     inkscape:window-maximized="1"
     inkscape:current-layer="svg1" />
  <path
     d="M380.001-380.001v-199.998h199.998v199.998H380.001ZM440-440h80v-80h-80v80Zm-69.999 290.767v-70.768h-77.692q-30.308 0-51.308-21t-21-51.308v-77.692h-70.768v-59.998h70.768v-100.002h-70.768v-59.998h70.768v-77.692q0-30.308 21-51.308t51.308-21h77.692v-70.768h59.998v70.768h100.002v-70.768h59.998v70.768h77.692q30.308 0 51.308 21t21 51.308v77.692h70.768v59.998h-70.768v100.002h70.768v59.998h-70.768v77.692q0 30.308-21 51.308t-51.308 21h-77.692v70.768h-59.998v-70.768H429.999v70.768h-59.998ZM667.691-280q4.616 0 8.463-3.846 3.846-3.847 3.846-8.463v-375.382q0-4.616-3.846-8.463-3.847-3.846-8.463-3.846H292.309q-4.616 0-8.463 3.846-3.846 3.847-3.846 8.463v375.382q0 4.616 3.846 8.463 3.847 3.846 8.463 3.846h375.382ZM480-480Z"
     id="path1"
     style="fill:#ffffff" />
</svg>
