<?xml version="1.0" encoding="UTF-8" standalone="no"?>
<svg
   height="24"
   viewBox="0 -960 960 960"
   width="24"
   version="1.1"
   id="svg1"
   sodipodi:docname="network_node_FILL0_wght300_GRAD0_opsz24.svg"
   inkscape:version="1.3.2 (091e20ef0f, 2023-11-25, custom)"
   xmlns:inkscape="http://www.inkscape.org/namespaces/inkscape"
   xmlns:sodipodi="http://sodipodi.sourceforge.net/DTD/sodipodi-0.dtd"
   xmlns="http://www.w3.org/2000/svg"
   xmlns:svg="http://www.w3.org/2000/svg">
  <defs
     id="defs1" />
  <sodipodi:namedview
     id="namedview1"
     pagecolor="#ffffff"
     bordercolor="#000000"
     borderopacity="0.25"
     inkscape:showpageshadow="2"
     inkscape:pageopacity="0.0"
     inkscape:pagecheckerboard="0"
     inkscape:deskcolor="#d1d1d1"
     inkscape:zoom="49.875"
     inkscape:cx="11.989975"
     inkscape:cy="12"
     inkscape:window-width="2560"
     inkscape:window-height="1403"
     inkscape:window-x="2560"
     inkscape:window-y="0"
     inkscape:window-maximized="1"
     inkscape:current-layer="svg1" />
  <path
     d="M219.231-100.001q-49.153 0-84.192-35.038-35.038-35.039-35.038-84.192 0-49.153 35.038-84.191 35.039-35.038 84.192-35.038 17.6 0 34.223 5.269 16.623 5.27 30.469 14.808l166.078-166.078v-141.156q-38.615-9.923-63.923-41.665-25.307-31.743-25.307-73.487 0-49.153 35.038-84.192 35.038-35.038 84.191-35.038 49.153 0 84.191 35.038 35.038 35.039 35.038 84.192 0 41.744-25.115 73.487-25.115 31.742-64.115 41.665v141.156l166.694 166.078q13.846-9.538 30.097-14.808 16.251-5.269 33.979-5.269 49.153 0 84.192 35.038 35.038 35.038 35.038 84.191 0 49.153-35.038 84.192-35.039 35.038-84.192 35.038-49.153 0-84.191-35.038-35.038-35.039-35.038-84.192 0-14.937 3.538-29.045 3.539-14.108 10.385-26.415L480-430.154 324.537-274.691q6.846 12.307 10.385 26.415 3.538 14.108 3.538 29.045 0 49.153-35.038 84.192-35.038 35.038-84.191 35.038ZM740.724-160q24.661 0 41.968-17.262Q800-194.525 800-219.185q0-24.661-17.262-41.969-17.263-17.307-41.923-17.307-24.661 0-41.969 17.262-17.307 17.262-17.307 41.923t17.262 41.968Q716.063-160 740.724-160ZM479.955-681.539q24.66 0 41.968-17.262 17.308-17.262 17.308-41.923t-17.263-41.968Q504.706-800 480.045-800q-24.66 0-41.968 17.262-17.308 17.263-17.308 41.923 0 24.661 17.263 41.969 17.262 17.307 41.923 17.307ZM219.185-160q24.661 0 41.969-17.262 17.307-17.263 17.307-41.923 0-24.661-17.262-41.969-17.262-17.307-41.923-17.307t-41.968 17.262Q160-243.937 160-219.276t17.262 41.968Q194.525-160 219.185-160Z"
     id="path1"
     style="fill:#ffffff" />
</svg>
