<?xml version="1.0" encoding="UTF-8" standalone="no"?>
<svg
   height="24"
   viewBox="0 -960 960 960"
   width="24"
   version="1.1"
   id="svg1"
   sodipodi:docname="sdk_FILL0_wght300_GRAD0_opsz24.svg"
   inkscape:version="1.3.2 (091e20ef0f, 2023-11-25, custom)"
   xmlns:inkscape="http://www.inkscape.org/namespaces/inkscape"
   xmlns:sodipodi="http://sodipodi.sourceforge.net/DTD/sodipodi-0.dtd"
   xmlns="http://www.w3.org/2000/svg"
   xmlns:svg="http://www.w3.org/2000/svg">
  <defs
     id="defs1" />
  <sodipodi:namedview
     id="namedview1"
     pagecolor="#ffffff"
     bordercolor="#000000"
     borderopacity="0.25"
     inkscape:showpageshadow="2"
     inkscape:pageopacity="0.0"
     inkscape:pagecheckerboard="0"
     inkscape:deskcolor="#d1d1d1"
     inkscape:zoom="49.875"
     inkscape:cx="11.989975"
     inkscape:cy="12"
     inkscape:window-width="2560"
     inkscape:window-height="1403"
     inkscape:window-x="2560"
     inkscape:window-y="0"
     inkscape:window-maximized="1"
     inkscape:current-layer="svg1" />
  <path
     d="M212.309-140.001q-29.923 0-51.115-21.193-21.193-21.192-21.193-51.115v-477.69q0-10.538 2.962-19.769 2.961-9.231 9.653-17.153l55.231-66.462q6.692-8.307 15.307-12.461 8.616-4.154 19.154-4.154h475.384q10.538 0 19.154 4.154 8.615 4.154 15.307 12.461l55.231 66.462q6.692 7.922 9.653 17.153 2.962 9.231 2.962 19.769v477.69q0 29.923-21.193 51.115-21.192 21.193-51.115 21.193H212.309ZM216-709.999h528l-34-40H250l-34 40ZM212.309-200h535.382q5.385 0 8.847-3.462 3.462-3.462 3.462-8.847v-437.692H200v437.692q0 5.385 3.462 8.847 3.462 3.462 8.847 3.462ZM582-292.616 709.384-420 582-547.384 538.616-504l84 84-84 84L582-292.616Zm-202 0L423.384-336l-84-84 84-84L380-547.384 252.616-420 380-292.616ZM200-200V-650.001-200Z"
     id="path1"
     style="fill:#ffffff" />
</svg>
