<?xml version="1.0" encoding="UTF-8" standalone="no"?>
<svg
   height="24"
   viewBox="0 -960 960 960"
   width="24"
   version="1.1"
   id="svg1"
   sodipodi:docname="engineering-data.svg"
   inkscape:version="1.3.2 (091e20ef0f, 2023-11-25, custom)"
   xml:space="preserve"
   xmlns:inkscape="http://www.inkscape.org/namespaces/inkscape"
   xmlns:sodipodi="http://sodipodi.sourceforge.net/DTD/sodipodi-0.dtd"
   xmlns="http://www.w3.org/2000/svg"
   xmlns:svg="http://www.w3.org/2000/svg"><defs
     id="defs1" /><sodipodi:namedview
     id="namedview1"
     pagecolor="#ffffff"
     bordercolor="#000000"
     borderopacity="0.25"
     inkscape:showpageshadow="2"
     inkscape:pageopacity="0.0"
     inkscape:pagecheckerboard="0"
     inkscape:deskcolor="#d1d1d1"
     inkscape:zoom="49.875"
     inkscape:cx="12.010025"
     inkscape:cy="10.937343"
     inkscape:window-width="2560"
     inkscape:window-height="1403"
     inkscape:window-x="2560"
     inkscape:window-y="0"
     inkscape:window-maximized="1"
     inkscape:current-layer="svg1" /><path
     d="m 59.309,-136.155 v -88.921 c 0,-19.69267 5.153667,-37.79533 15.461,-54.308 10.308,-16.512 24.692667,-29.38367 43.154,-38.615 33.23067,-16.82 70.41,-30.71733 111.538,-41.692 41.128,-10.974 84.40967,-16.461 129.845,-16.461 45.436,0 88.718,5.487 129.846,16.461 41.128,10.97467 78.30733,24.872 111.538,41.692 18.46133,9.23133 32.846,22.103 43.154,38.615 10.30733,16.51267 15.461,34.61533 15.461,54.308 v 88.921 z m 59.998,-59.999 h 480 v -28.922 c 0,-9.12867 -2.47433,-16.94933 -7.423,-23.462 -4.94867,-6.51267 -11.19233,-11.82033 -18.731,-15.923 -24.51267,-12.51333 -55.60233,-24.257 -93.269,-35.231 -37.66667,-10.97467 -77.859,-16.462 -120.577,-16.462 -42.71733,0 -82.90933,5.48733 -120.576,16.462 -37.66667,10.974 -68.75633,22.71767 -93.269,35.231 -7.53867,4.10267 -13.78233,9.41033 -18.731,15.923 -4.94933,6.51267 -7.424,14.33333 -7.424,23.462 z m 240,-244.615 c -39.12733,0 -72.24233,-13.55133 -99.345,-40.654 -27.102,-27.102 -40.653,-60.98633 -40.653,-101.653 h -9.231 c -5.23067,0 -9.487,-1.641 -12.769,-4.923 -3.282,-3.282 -4.923,-7.53833 -4.923,-12.769 0,-5.23067 1.641,-9.487 4.923,-12.769 3.282,-3.282 7.53833,-4.923 12.769,-4.923 h 9.231 c 0.51267,-25.128 6.30733,-47.83267 17.384,-68.114 11.07667,-20.282 26.82,-37.67933 47.23,-52.192 v 38 c 0,5.23067 1.641,9.487 4.923,12.769 3.282,3.282 7.53833,4.923 12.769,4.923 5.23067,0 9.487,-1.641 12.769,-4.923 3.282,-3.282 4.923,-7.53833 4.923,-12.769 v -53.231 c 5.744,-2 12.01333,-3.62833 18.808,-4.885 6.79467,-1.256 13.85867,-1.884 21.192,-1.884 7.33333,0 14.39767,0.628 21.193,1.884 6.79467,1.25667 13.06367,2.885 18.807,4.885 v 53.231 c 0,5.23067 1.64133,9.487 4.924,12.769 3.282,3.282 7.53833,4.923 12.769,4.923 5.23067,0 9.487,-1.641 12.769,-4.923 3.282,-3.282 4.923,-7.53833 4.923,-12.769 v -38 c 20.666,14.51267 36.47333,31.91 47.422,52.192 10.94867,20.28133 16.67933,42.986 17.192,68.114 h 9.231 c 5.23067,0 9.487,1.641 12.769,4.923 3.282,3.282 4.923,7.53833 4.923,12.769 0,5.23067 -1.641,9.487 -4.923,12.769 -3.282,3.282 -7.53833,4.923 -12.769,4.923 h -9.231 c 0,40.66667 -13.551,74.551 -40.653,101.653 -27.10267,27.10267 -60.218,40.654 -99.346,40.654 z m 0,-59.999 c 22.51333,0 41.475,-7.705 56.885,-23.115 15.41,-15.41067 23.115,-34.37233 23.115,-56.885 h -160 c 0,22.51267 7.70533,41.47433 23.116,56.885 15.41,15.41 34.37133,23.115 56.884,23.115 z"
     id="path1"
     style="fill:#ffffff"
     sodipodi:nodetypes="cscccscccsccccssccscccscsscssssscccsssssccsccscssscccssssscssscccss" /><path
     d="m 621.7861,-433.09894 h 95.60306 v -23.90077 H 621.7861 Z m 0,-47.80153 h 95.60306 v -23.90077 H 621.7861 Z m -23.90076,95.60306 q -9.85907,0 -16.87992,-7.02085 -7.02085,-7.02085 -7.02085,-16.87992 V -600.4043 q 0,-9.85906 7.02085,-16.87991 7.02085,-7.02085 16.87992,-7.02085 h 95.60306 l 71.7023,71.70229 v 143.40459 q 0,9.85907 -7.02084,16.87992 -7.02088,7.02085 -16.87993,7.02085 z m 83.65267,-155.35497 v -59.75192 h -83.65267 v 191.20612 h 143.40459 v -131.4542 z m -83.65267,-59.75192 v 59.75192 -59.75192 191.20612 z"
     id="path1-2"
     style="stroke-width:0.29876;fill:#ffffff" /></svg>
