<?xml version="1.0" encoding="UTF-8" standalone="no"?>
<svg
   height="24"
   viewBox="0 -960 960 960"
   width="24"
   version="1.1"
   id="svg1"
   sodipodi:docname="engineering-cloud.svg"
   inkscape:version="1.3.2 (091e20ef0f, 2023-11-25, custom)"
   xml:space="preserve"
   xmlns:inkscape="http://www.inkscape.org/namespaces/inkscape"
   xmlns:sodipodi="http://sodipodi.sourceforge.net/DTD/sodipodi-0.dtd"
   xmlns="http://www.w3.org/2000/svg"
   xmlns:svg="http://www.w3.org/2000/svg"><defs
     id="defs1" /><sodipodi:namedview
     id="namedview1"
     pagecolor="#ffffff"
     bordercolor="#000000"
     borderopacity="0.25"
     inkscape:showpageshadow="2"
     inkscape:pageopacity="0.0"
     inkscape:pagecheckerboard="0"
     inkscape:deskcolor="#d1d1d1"
     inkscape:zoom="49.875"
     inkscape:cx="11.989975"
     inkscape:cy="10.947368"
     inkscape:window-width="2560"
     inkscape:window-height="1362"
     inkscape:window-x="0"
     inkscape:window-y="0"
     inkscape:window-maximized="1"
     inkscape:current-layer="svg1" /><path
     d="m 59.309,-136.155 v -88.921 c 0,-19.69267 5.153667,-37.79533 15.461,-54.308 10.308,-16.512 24.692667,-29.38367 43.154,-38.615 33.23067,-16.82 70.41,-30.71733 111.538,-41.692 41.128,-10.974 84.40967,-16.461 129.845,-16.461 45.436,0 88.718,5.487 129.846,16.461 41.128,10.97467 78.30733,24.872 111.538,41.692 18.46133,9.23133 32.846,22.103 43.154,38.615 10.30733,16.51267 15.461,34.61533 15.461,54.308 v 88.921 z m 59.998,-59.999 h 480 v -28.922 c 0,-9.12867 -2.47433,-16.94933 -7.423,-23.462 -4.94867,-6.51267 -11.19233,-11.82033 -18.731,-15.923 -24.51267,-12.51333 -55.60233,-24.257 -93.269,-35.231 -37.66667,-10.97467 -77.859,-16.462 -120.577,-16.462 -42.71733,0 -82.90933,5.48733 -120.576,16.462 -37.66667,10.974 -68.75633,22.71767 -93.269,35.231 -7.53867,4.10267 -13.78233,9.41033 -18.731,15.923 -4.94933,6.51267 -7.424,14.33333 -7.424,23.462 z m 240,-244.615 c -39.12733,0 -72.24233,-13.55133 -99.345,-40.654 -27.102,-27.102 -40.653,-60.98633 -40.653,-101.653 h -9.231 c -5.23067,0 -9.487,-1.641 -12.769,-4.923 -3.282,-3.282 -4.923,-7.53833 -4.923,-12.769 0,-5.23067 1.641,-9.487 4.923,-12.769 3.282,-3.282 7.53833,-4.923 12.769,-4.923 h 9.231 c 0.51267,-25.128 6.30733,-47.83267 17.384,-68.114 11.07667,-20.282 26.82,-37.67933 47.23,-52.192 v 38 c 0,5.23067 1.641,9.487 4.923,12.769 3.282,3.282 7.53833,4.923 12.769,4.923 5.23067,0 9.487,-1.641 12.769,-4.923 3.282,-3.282 4.923,-7.53833 4.923,-12.769 v -53.231 c 5.744,-2 12.01333,-3.62833 18.808,-4.885 6.79467,-1.256 13.85867,-1.884 21.192,-1.884 7.33333,0 14.39767,0.628 21.193,1.884 6.79467,1.25667 13.06367,2.885 18.807,4.885 v 53.231 c 0,5.23067 1.64133,9.487 4.924,12.769 3.282,3.282 7.53833,4.923 12.769,4.923 5.23067,0 9.487,-1.641 12.769,-4.923 3.282,-3.282 4.923,-7.53833 4.923,-12.769 v -38 c 20.666,14.51267 36.47333,31.91 47.422,52.192 10.94867,20.28133 16.67933,42.986 17.192,68.114 h 9.231 c 5.23067,0 9.487,1.641 12.769,4.923 3.282,3.282 4.923,7.53833 4.923,12.769 0,5.23067 -1.641,9.487 -4.923,12.769 -3.282,3.282 -7.53833,4.923 -12.769,4.923 h -9.231 c 0,40.66667 -13.551,74.551 -40.653,101.653 -27.10267,27.10267 -60.218,40.654 -99.346,40.654 z m 0,-59.999 c 22.51333,0 41.475,-7.705 56.885,-23.115 15.41,-15.41067 23.115,-34.37233 23.115,-56.885 h -160 c 0,22.51267 7.70533,41.47433 23.116,56.885 15.41,15.41 34.37133,23.115 56.884,23.115 z"
     id="path1"
     style="fill:#ffffff"
     sodipodi:nodetypes="cscccscccsccccssccscccscsscssssscccsssssccsccscssscccssssscssscccss" /><path
     d="m 604.71425,-367.97288 q -28.58648,0 -48.76718,-19.86216 -20.18036,-19.86216 -20.18036,-48.44899 0,-25.29836 16.20275,-45.0016 16.20276,-19.70289 41.34219,-23.30921 6.62968,-30.92071 31.09274,-50.57086 24.46305,-19.65015 56.15254,-19.65015 37.41732,0 63.52444,26.10746 26.10746,26.10712 26.10746,63.52445 v 6.89513 h 4.24305 q 21.79788,1.69715 36.35657,17.52862 14.55869,15.83147 14.55869,37.62935 0,23.07065 -16.04348,39.11448 -16.04383,16.04348 -39.11448,16.04348 z m 0,-20.68402 h 165.47493 q 14.47905,0 24.4765,-9.99744 9.99744,-9.99745 9.99744,-24.4765 0,-14.47906 -9.99744,-24.4765 -9.99745,-9.99745 -24.4765,-9.99745 h -20.68437 v -27.57915 q 0,-28.61337 -20.16726,-48.78063 -20.16725,-20.16726 -48.78062,-20.16726 -28.61338,0 -48.78063,20.16726 -20.16726,20.16726 -20.16726,48.78063 h -6.89479 q -19.99489,0 -34.1292,14.13432 -14.13432,14.13431 -14.13432,34.1292 0,19.99489 14.13432,34.1292 14.13431,14.13432 34.1292,14.13432 z m 75.84268,-82.73746 z"
     id="path1-5"
     style="stroke-width:0.344739;fill:#ffffff" /></svg>
