<?xml version="1.0" encoding="UTF-8" standalone="no"?>
<svg
   height="24"
   viewBox="0 -960 960 960"
   width="24"
   version="1.1"
   id="svg1"
   sodipodi:docname="engineering_FILL0_wght300_GRAD0_opsz24.svg"
   inkscape:version="1.3.2 (091e20ef0f, 2023-11-25, custom)"
   xmlns:inkscape="http://www.inkscape.org/namespaces/inkscape"
   xmlns:sodipodi="http://sodipodi.sourceforge.net/DTD/sodipodi-0.dtd"
   xmlns="http://www.w3.org/2000/svg"
   xmlns:svg="http://www.w3.org/2000/svg">
  <defs
     id="defs1" />
  <sodipodi:namedview
     id="namedview1"
     pagecolor="#ffffff"
     bordercolor="#000000"
     borderopacity="0.25"
     inkscape:showpageshadow="2"
     inkscape:pageopacity="0.0"
     inkscape:pagecheckerboard="0"
     inkscape:deskcolor="#d1d1d1"
     inkscape:zoom="49.875"
     inkscape:cx="12"
     inkscape:cy="12"
     inkscape:window-width="2560"
     inkscape:window-height="1403"
     inkscape:window-x="2560"
     inkscape:window-y="0"
     inkscape:window-maximized="1"
     inkscape:current-layer="svg1" />
  <path
     d="M59.309-136.155v-88.921q0-29.539 15.461-54.308 15.462-24.768 43.154-38.615 49.846-25.23 111.538-41.692 61.692-16.461 129.845-16.461 68.154 0 129.846 16.461 61.692 16.462 111.538 41.692 27.692 13.847 43.154 38.615 15.461 24.769 15.461 54.308v88.921H59.309Zm59.998-59.999h480v-28.922q0-13.693-7.423-23.462t-18.731-15.923q-36.769-18.77-93.269-35.231-56.5-16.462-120.577-16.462-64.076 0-120.576 16.462-56.5 16.461-93.269 35.231-11.308 6.154-18.731 15.923-7.424 9.769-7.424 23.462v28.922Zm240-244.615q-58.691 0-99.345-40.654-40.653-40.653-40.653-101.653h-9.231q-7.846 0-12.769-4.923t-4.923-12.769q0-7.846 4.923-12.769t12.769-4.923h9.231q.769-37.692 17.384-68.114 16.615-30.423 47.23-52.192v38q0 7.846 4.923 12.769t12.769 4.923q7.846 0 12.769-4.923t4.923-12.769v-53.231q8.616-3 18.808-4.885 10.192-1.884 21.192-1.884t21.193 1.884q10.192 1.885 18.807 4.885v53.231q0 7.846 4.924 12.769 4.923 4.923 12.769 4.923t12.769-4.923q4.923-4.923 4.923-12.769v-38q30.999 21.769 47.422 52.192 16.423 30.422 17.192 68.114h9.231q7.846 0 12.769 4.923t4.923 12.769q0 7.846-4.923 12.769t-12.769 4.923h-9.231q0 61-40.653 101.653-40.654 40.654-99.346 40.654Zm0-59.999q33.77 0 56.885-23.115 23.115-23.116 23.115-56.885h-160q0 33.769 23.116 56.885 23.115 23.115 56.884 23.115Zm300.77 137.691-4.462-29.231q-6.769-2-13.615-5.461-6.846-3.462-12.231-8.847l-27.231 10.77-17.692-31.385 22.769-18.461q-.769-3.769-.769-7.154v-14.116q0-3.192.769-7.346l-22.769-18.461 17.692-31.385 27.231 10.77q4.769-4.77 11.923-8.539t13.923-5.769l4.462-29.231h35.384l4.461 29.231q6.77 2 13.924 5.769t11.923 8.539L753-524.154l17.692 31.385-22.77 18.461q.77 4.154.77 7.346v14.116q0 3.385-.77 7.154l22.77 18.461L753-395.846l-27.231-10.77q-5.385 5.385-12.231 8.847-6.846 3.461-13.616 5.461l-4.461 29.231h-35.384Zm17.692-63.846q13.538 0 23.308-9.769 9.769-9.769 9.769-23.308t-9.769-23.308q-9.77-9.769-23.308-9.769-13.539 0-23.308 9.769T644.692-460q0 13.539 9.769 23.308t23.308 9.769Zm76.616-144.616-5.692-36.615q-10.154-2.616-20.155-8.27-10-5.654-16.769-13.577l-35.846 13.231-22.615-38.769 30.154-24.615q-2-5.384-2.385-9.923-.384-4.538-.384-9.923t.384-9.923q.385-4.539 2.385-9.923l-30.154-24.615 22.615-38.769 35.846 13.231q6.769-7.923 16.769-13.577 10.001-5.654 20.155-8.27l5.692-36.615h45.23l5.692 36.615q10.154 2.616 20.154 8.27t16.769 13.577l35.846-13.231 22.615 38.769-30.154 24.615q2 5.384 2.385 9.923.385 4.538.385 9.923t-.385 9.923q-.385 4.539-2.385 9.923l30.154 24.615-22.615 38.769-35.846-13.231q-6.769 7.923-16.769 13.577-10 5.654-20.154 8.27l-5.692 36.615h-45.23ZM777-647.692q22.154 0 37.231-15.077 15.076-15.077 15.076-37.231 0-22.154-15.076-37.231-15.077-15.077-37.231-15.077-22.154 0-37.231 15.077-15.077 15.077-15.077 37.231 0 22.154 15.077 37.231 15.077 15.077 37.231 15.077ZM359.307-196.154Z"
     id="path1"
     style="fill:#ffffff" />
</svg>
