<?xml version="1.0" encoding="UTF-8" standalone="no"?>
<svg
   height="24"
   viewBox="0 -960 960 960"
   width="24"
   version="1.1"
   id="svg1"
   sodipodi:docname="person_FILL0_wght300_GRAD0_opsz24.svg"
   inkscape:version="1.3.2 (091e20ef0f, 2023-11-25, custom)"
   xmlns:inkscape="http://www.inkscape.org/namespaces/inkscape"
   xmlns:sodipodi="http://sodipodi.sourceforge.net/DTD/sodipodi-0.dtd"
   xmlns="http://www.w3.org/2000/svg"
   xmlns:svg="http://www.w3.org/2000/svg">
  <defs
     id="defs1" />
  <sodipodi:namedview
     id="namedview1"
     pagecolor="#ffffff"
     bordercolor="#000000"
     borderopacity="0.25"
     inkscape:showpageshadow="2"
     inkscape:pageopacity="0.0"
     inkscape:pagecheckerboard="0"
     inkscape:deskcolor="#d1d1d1"
     inkscape:zoom="49.875"
     inkscape:cx="12"
     inkscape:cy="12"
     inkscape:window-width="2560"
     inkscape:window-height="1403"
     inkscape:window-x="2560"
     inkscape:window-y="0"
     inkscape:window-maximized="1"
     inkscape:current-layer="svg1" />
  <path
     d="M480-492.309q-57.749 0-98.874-41.124-41.125-41.125-41.125-98.874 0-57.75 41.125-98.874 41.125-41.125 98.874-41.125 57.749 0 98.874 41.125 41.125 41.124 41.125 98.874 0 57.749-41.125 98.874-41.125 41.124-98.874 41.124ZM180.001-187.694v-88.922q0-29.384 15.962-54.422 15.961-25.038 42.653-38.5 59.308-29.077 119.654-43.615T480-427.691q61.384 0 121.73 14.538 60.346 14.538 119.654 43.615 26.692 13.462 42.653 38.5 15.962 25.038 15.962 54.422v88.922H180.001ZM240-247.693h480v-28.923q0-12.154-7.039-22.5-7.038-10.346-19.115-16.885-51.692-25.461-105.418-38.577Q534.702-367.693 480-367.693t-108.428 13.115q-53.726 13.116-105.418 38.577-12.077 6.539-19.115 16.885Q240-288.77 240-276.616v28.923Zm240-304.614q33 0 56.5-23.5t23.5-56.5q0-33-23.5-56.5t-56.5-23.5q-33 0-56.5 23.5t-23.5 56.5q0 33 23.5 56.5t56.5 23.5Zm0-80Zm0 384.614Z"
     id="path1"
     style="fill:#ffffff" />
</svg>
